<svg xmlns="http://www.w3.org/2000/svg" id="Layer_1" data-name="Layer 1" viewBox="0 0 538.5 121.1"><defs><style>.cls-1{isolation:isolate;}.cls-2{fill:#fff;}</style></defs><title>logo_YouWol_name_white</title><g class="cls-1"><path class="cls-2" d="M188.3,121V84.7L155.2,35.2H169l16.9,25.9c3.1,4.8,6,9.7,8.7,14.5,2.6-4.5,5.7-9.6,9.4-15.2l16.6-25.3h13.2L199.6,84.7v36.4l-11.3-.1Z" transform="translate(-14.8 -11.1)"></path><path class="cls-2" d="M227.8,89.9c0-11.5,3.2-20.1,9.6-25.6A29.15,29.15,0,0,1,257,57.4c8.6,0,15.5,2.8,21,8.4s8.1,13.4,8.1,23.2q0,12-3.6,18.9A25.2,25.2,0,0,1,272,118.6a31,31,0,0,1-15,3.8c-8.7,0-15.8-2.8-21.1-8.4S227.8,100.4,227.8,89.9Zm10.9,0c0,8,1.7,13.9,5.2,17.9a17.4,17.4,0,0,0,26.2-.1c3.5-4,5.2-10.1,5.2-18.2,0-7.7-1.7-13.5-5.2-17.5a16.45,16.45,0,0,0-13-5.9A16.82,16.82,0,0,0,244,72C240.4,76,238.7,82,238.7,89.9Z" transform="translate(-14.8 -11.1)"></path><path class="cls-2" d="M339.3,121v-9.1c-4.8,7-11.4,10.5-19.7,10.5a25.3,25.3,0,0,1-10.3-2.1,17.43,17.43,0,0,1-7.1-5.3,21.38,21.38,0,0,1-3.3-7.8,57.84,57.84,0,0,1-.6-9.8V58.8h10.5V93.3a65.47,65.47,0,0,0,.6,11.1,11,11,0,0,0,4.2,6.5,12.89,12.89,0,0,0,8,2.4,17.49,17.49,0,0,0,8.9-2.4,13.48,13.48,0,0,0,5.9-6.6c1.2-2.8,1.7-6.8,1.7-12.2V58.8h10.5V121Z" transform="translate(-14.8 -11.1)"></path><path class="cls-2" d="M381.6,121,358.8,35.1h11.7l13.1,56.3c1.4,5.9,2.6,11.8,3.6,17.6q3.3-13.8,3.9-15.9l16.3-58h13.7l12.3,43.5a233.91,233.91,0,0,1,6.7,30.4c1.1-5.4,2.5-11.7,4.3-18.7l13.5-55.2h11.4L445.7,121h-11L416.6,55.6c-1.5-5.5-2.4-8.8-2.7-10.1-.9,3.9-1.7,7.3-2.5,10.1L393.2,121Z" transform="translate(-14.8 -11.1)"></path><path class="cls-2" d="M472.4,89.9c0-11.5,3.2-20.1,9.6-25.6a29.15,29.15,0,0,1,19.6-6.9c8.6,0,15.5,2.8,21,8.4s8.1,13.4,8.1,23.2q0,12-3.6,18.9a25.2,25.2,0,0,1-10.5,10.7,31,31,0,0,1-15,3.8c-8.7,0-15.8-2.8-21.1-8.4S472.4,100.4,472.4,89.9Zm10.8,0c0,8,1.7,13.9,5.2,17.9a17.4,17.4,0,0,0,26.2-.1c3.5-4,5.2-10.1,5.2-18.2,0-7.7-1.7-13.5-5.2-17.5a16.45,16.45,0,0,0-13-5.9A16.82,16.82,0,0,0,488.5,72C485,76,483.2,82,483.2,89.9Z" transform="translate(-14.8 -11.1)"></path><path class="cls-2" d="M542.8,121V35.1h10.5V121Z" transform="translate(-14.8 -11.1)"></path></g><polygon class="cls-2" points="109.6 94.7 109.6 84.2 91.4 73.7 109.6 63.2 109.6 42.1 64 68.5 64 68.5 64 121.1 82.2 110.6 82.2 89.5 100.6 100 109.6 94.8 109.6 94.7"></polygon><polygon class="cls-2" points="54.8 52.7 9.2 26.4 27.5 15.8 45.7 26.3 45.7 5.4 54.8 0.1 54.8 0 63.9 5.3 63.9 26.4 82.2 15.9 100.5 26.4 54.8 52.7"></polygon><polygon class="cls-2" points="0.1 94.8 9.2 100 27.4 89.5 27.4 110.6 45.7 121.1 45.7 68.5 45.7 68.4 0.1 42.1 0.1 63.2 18.4 73.7 0 84.3 0 94.7 0.1 94.8"></polygon></svg>